PathFileType	4	(X/Y/Z)	../Python\walking\Walking08\task.trc
DataRate	CameraRate	NumFrames	NumMarkers	Units	OrigDataRate	OrigDataStartFrame	OrigNumFrames
200.000000	200.000000	7	30	mm	200.000000	250	501
Frame#	Time	CLAV			STRN			RASI			LPSI			LASI			RTH1			RTH2			RTH3			RTB1			RTB2			RTB3			RHEE			RD5M			RTOE			LTB1			LTB2			LTB3			LTOE			LD5M			RPSI			LTH2			LTH1			PE03			T10			LTH3			PE01			PE02			C7			RBAK			LHEE			
		X1	Y1	Z1	X2	Y2	Z2	X3	Y3	Z3	X4	Y4	Z4	X5	Y5	Z5	X6	Y6	Z6	X7	Y7	Z7	X8	Y8	Z8	X9	Y9	Z9	X10	Y10	Z10	X11	Y11	Z11	X12	Y12	Z12	X13	Y13	Z13	X14	Y14	Z14	X15	Y15	Z15	X16	Y16	Z16	X17	Y17	Z17	X18	Y18	Z18	X19	Y19	Z19	X20	Y20	Z20	X21	Y21	Z21	X22	Y22	Z22	X23	Y23	Z23	X24	Y24	Z24	X25	Y25	Z25	X26	Y26	Z26	X27	Y27	Z27	X28	Y28	Z28	X29	Y29	Z29	X30	Y30	Z30	

251	1.25	1197.126831054688	1418.259521484375	147.0313568115235	1240.94580078125	1223.002563476563	160.5214233398438	1207.989013671875	1019.847106933594	298.5486755371095	1037.084716796875	1059.90380859375	127.0713806152344	1206.8515625	1012.874328613282	24.2469882965088	1246.667114257813	767.0272216796877	350.937957763672	1205.564819335938	722.5788574218752	337.3350524902345	1243.670043945313	690.4241943359377	330.5057067871095	1392.265258789063	389.2996826171877	285.6981811523439	1365.957885742188	333.436737060547	286.0264282226564	1410.135009765625	312.6103820800782	277.9490661621095	1421.133056640625	27.25418663024904	194.4241027832032	1576.536621093751	57.7183647155762	269.9539794921876	1613.843017578126	97.2310409545899	235.7252655029298	949.6286621093755	369.2499084472657	56.81338882446292	912.9780883789067	339.0042724609376	72.67419433593753	952.5891113281255	290.9401855468751	68.89261627197268	1039.0908203125	30.65657997131349	142.2946777343751	988.307495117188	18.67341232299805	95.29673767089847	1045.890258789063	1057.018676757813	226.0399017333986	1029.063598632813	688.336364746094	18.57001304626466	1065.498779296875	718.6148071289065	2.00614356994629	1032.531005859375	1045.153442382813	152.9957122802735	1011.583618164063	1259.140502929688	135.0688934326172	1069.907592773438	642.0699462890627	21.85561752319337	1048.651733398438	1105.23974609375	176.1069335937501	1040.099487304688	1045.058471679688	203.9188842773439	1083.933471679688	1509.112915039063	126.5268554687501	1048.893798828125	1432.495361328125	296.0950012207032	826.554321289063	59.73807144165042	162.8927001953126	
252	1.255	1204.00341796875	1416.94287109375	147.1284637451172	1247.650634765625	1221.567260742188	160.528060913086	1215.27490234375	1018.407531738282	298.8879699707032	1043.776977539063	1058.521362304688	127.7325515747071	1213.322998046875	1011.647216796875	24.14393806457521	1252.566650390625	764.8017578125002	351.0567321777345	1211.152587890625	720.7164306640627	336.993865966797	1248.954345703125	688.206481933594	330.278533935547	1400.704345703125	388.7745361328127	285.3806762695314	1375.694702148438	332.3105773925782	285.7551269531251	1420.294555664063	312.5036621093751	277.491180419922	1437.733276367188	27.35239410400392	193.5572662353517	1592.816650390626	61.07316207885745	268.5781555175782	1629.101562500001	101.6425476074219	234.2763671875001	952.452270507813	369.5611267089845	57.08813476562503	915.559448242188	339.603485107422	72.92693328857425	954.8159790039067	291.2317504882814	69.18128967285159	1039.12744140625	30.63045120239259	142.3433990478516	988.1965332031255	18.78530502319337	95.50283050537112	1052.850463867188	1055.624877929688	226.6674804687501	1034.00634765625	688.039245605469	18.84552001953126	1070.5517578125	718.1196899414065	2.122403144836427	1039.325317382813	1043.775634765625	153.6480560302735	1018.288269042969	1257.871337890625	135.1552429199219	1074.579833984375	641.5091552734377	21.93354606628419	1055.461303710938	1103.867431640625	176.7377471923829	1047.022216796875	1043.673706054688	204.5588226318361	1090.715209960938	1507.842163085938	126.6225967407227	1055.64208984375	1431.153686523438	296.1588134765626	826.8715209960942	60.99912261962893	163.1798248291016	
253	1.26	1210.900512695313	1415.64306640625	147.2443084716797	1254.408935546875	1220.153564453125	160.5509033203126	1222.613647460938	1016.9609375	299.2366638183595	1050.545654296875	1057.141357421875	128.3840942382813	1219.882202148438	1010.414916992188	24.03988075256349	1258.469970703125	762.6008300781252	351.1707153320314	1216.75	718.8881835937502	336.5787963867189	1254.232177734375	686.0312500000002	329.9577636718751	1408.990600585938	388.252380371094	285.052459716797	1385.197387695313	331.2524719238282	285.4699707031251	1430.171142578125	312.3975830078126	277.0116271972657	1453.566650390625	27.51986694335939	192.5612182617189	1608.236938476563	64.3177185058594	267.2557067871095	1643.574829101563	105.8847198486329	232.9283905029298	955.3546752929692	369.907440185547	57.36687469482425	918.2097778320317	340.2507324218751	73.19353485107425	957.104125976563	291.5709228515626	69.48303222656253	1039.159790039063	30.60424041748048	142.3931427001954	988.0917968750005	18.9015235900879	95.7144470214844	1059.871215820313	1054.2412109375	227.2888336181642	1039.007446289063	687.7642211914065	19.15794563293458	1075.651000976563	717.6495361328127	2.257392406463624	1046.192749023438	1042.405029296875	154.2901458740235	1025.043090820313	1256.58984375	135.2698059082032	1079.30517578125	640.972351074219	22.01118278503419	1062.341796875	1102.502075195313	177.3599090576172	1054.005859375	1042.297607421875	205.1900939941407	1097.506469726563	1506.57666015625	126.7431106567383	1062.417846679688	1429.807861328125	296.252899169922	827.216674804688	62.34788513183597	163.4460754394532	
254	1.265	1217.81884765625	1414.366333007813	147.3798065185547	1261.223754882813	1218.768432617188	160.5910797119141	1230.005249023438	1015.517517089844	299.5934448242189	1057.39501953125	1055.769775390625	129.0206909179688	1226.535522460938	1009.179260253907	23.93704414367676	1264.396362304688	760.4510498046877	351.2805175781251	1222.385864257813	717.1143798828127	336.0968627929689	1259.543212890625	683.9299926757815	329.5513610839845	1417.123413085938	387.7201843261721	284.7126770019532	1394.450561523438	330.2500305175782	285.1629943847657	1439.751220703125	312.2696228027345	276.5101318359376	1468.5791015625	27.71009445190431	191.4377593994141	1622.760742187501	67.37236022949222	265.9861755371095	1657.234619140626	109.8764114379883	231.6811523437501	958.3350219726567	370.2908935546876	57.64320755004886	920.9292602539067	340.9480285644532	73.46892547607425	959.452514648438	291.9598083496095	69.7879333496094	1039.188354492188	30.5779266357422	142.4423828125001	987.9956665039067	19.02119827270509	95.92777252197268	1066.9541015625	1052.874633789063	227.8987884521486	1044.065673828125	687.517761230469	19.5117359161377	1080.796020507813	717.209899902344	2.414081096649171	1053.13623046875	1041.04736328125	154.9169616699219	1031.850830078125	1255.300537109375	135.4113922119141	1084.079223632813	640.4656372070315	22.08742904663087	1069.296752929688	1101.150146484375	177.9678649902344	1061.052734375	1040.936889648438	205.8078460693361	1104.307373046875	1505.321533203125	126.8889236450196	1069.221557617188	1428.462524414063	296.3773193359376	827.5910644531255	63.78738784790042	163.680648803711	
255	1.27	1224.759033203125	1413.118408203125	147.5358428955079	1268.098022460938	1217.4189453125	160.6497039794922	1237.449584960938	1014.088073730469	299.957244873047	1064.329467773438	1054.41259765625	129.6370849609376	1233.28857421875	1007.941955566407	23.83801078796387	1270.366821289063	758.3787231445315	351.3872680664064	1228.090576171875	715.4139404296877	335.5577087402345	1264.929931640625	681.9328613281252	329.0718078613282	1425.101196289063	387.1637268066409	284.3604125976564	1403.439086914063	329.2893066406251	284.8260803222657	1449.021606445313	312.0964355468751	275.9866943359376	1482.720092773438	27.87847137451173	190.1935119628907	1636.356567382813	70.15816497802737	264.7690734863282	1670.057861328126	113.5359573364258	230.5338287353517	961.3941040039067	370.7128906250001	57.9096488952637	923.7197875976567	341.6964416503907	73.74601745605472	961.8618164062505	292.3992614746095	70.08403778076175	1039.2138671875	30.55157470703126	142.4896240234376	987.910766601563	19.14319801330567	96.13841247558599	1074.10107421875	1051.531860351563	228.4922180175782	1049.18212890625	687.305114746094	19.91008377075196	1085.988403320313	716.8052368164065	2.595555543899537	1060.158813476563	1039.709228515625	155.5235290527344	1038.713989257813	1254.008056640625	135.5785827636719	1088.900268554688	639.993835449219	22.1612949371338	1076.328857421875	1099.818237304688	178.5560302734376	1068.1650390625	1039.598510742188	206.4072723388673	1111.118530273438	1504.081665039063	127.0604476928712	1076.05322265625	1427.1220703125	296.5319213867189	827.9960937500005	65.32080841064456	163.8710327148438	
256	1.275	1231.721435546875	1411.905395507813	147.7132720947266	1275.034423828125	1216.112060546875	160.7278289794922	1244.946655273438	1012.683532714844	300.327117919922	1071.35302734375	1053.07568359375	130.2281799316407	1240.147216796875	1006.704956054688	23.74567031860352	1276.402709960938	756.4088134765627	351.4926147460939	1233.895141601563	713.804138183594	334.9737548828126	1270.436401367188	680.0677490234377	328.5355834960939	1432.922485351563	386.5682373046877	283.9949951171876	1412.148559570313	328.3554687500001	284.451385498047	1457.970581054688	311.8549804687501	275.4417419433595	1495.9443359375	27.98399734497072	188.8400115966797	1648.999877929688	72.59967041015628	263.6038818359376	1682.027099609376	116.7836608886719	229.4851989746095	964.534301757813	371.1741027832032	58.15787506103518	926.584838867188	342.4959716796876	74.01588439941409	964.3342895507817	292.8891906738282	70.35800933837893	1039.237426757813	30.52536010742189	142.5333099365235	987.8400268554692	19.2661247253418	96.34156799316412	1081.3134765625	1050.219848632813	229.0641326904298	1054.360595703125	687.1296386718752	20.35442924499512	1091.232788085938	716.4385375976565	2.804621219635011	1067.263305664063	1038.396606445313	156.1051025390626	1045.63525390625	1252.717163085938	135.7697906494141	1093.770385742188	639.5603027343752	22.23190879821778	1083.441040039063	1098.5126953125	179.1189575195313	1075.344970703125	1038.289184570313	206.9837188720704	1117.940307617188	1502.862060546875	127.2579879760743	1082.9130859375	1425.791137695313	296.7164001464845	828.4336547851567	66.95156860351565	164.0034637451172	
257	1.28	1238.706420898438	1410.733154296875	147.9128417968751	1282.035522460938	1214.854736328125	160.8265075683594	1252.4970703125	1011.315124511719	300.7022399902345	1078.469360351563	1051.765014648438	130.7891998291016	1247.116577148438	1005.470275878907	23.66314888000489	1282.525512695313	754.5643310546877	351.5985717773439	1239.830078125	712.3001098632815	334.3598937988282	1276.106811523438	678.3589477539065	327.9625854492189	1440.585327148438	385.9191894531252	283.6158142089845	1420.566040039063	327.4333496093751	284.0319824218751	1466.587768554688	311.5234680175782	274.8761596679689	1508.213989257813	27.99098014831544	187.3933868408204	1660.673217773438	74.62757873535159	262.4905700683595	1693.132812500001	119.5445098876954	228.5337677001954	967.7599487304692	371.6746215820314	58.37904739379886	929.530151367188	343.3458251953126	74.26798248291018	966.8740234375005	293.4283447265626	70.596061706543	1039.260498046875	30.49961280822755	142.572006225586	987.7863159179692	19.38830947875977	96.53233337402349	1088.593139648438	1048.945434570313	229.6097564697267	1059.607788085938	686.9925537109377	20.84410285949708	1096.536865234375	716.111267089844	3.043359756469728	1074.452270507813	1037.115844726563	156.6572418212891	1052.616455078125	1251.4326171875	135.9833221435547	1098.695434570313	639.1667480468752	22.2984790802002	1090.635986328125	1097.240112304688	179.6514434814454	1082.594848632813	1037.015991210938	207.5327758789064	1124.773193359375	1501.667602539063	127.4817199707032	1089.80126953125	1424.47412109375	296.9304199218751	828.906127929688	68.68341064453128	164.0635986328126	
